<svg xmlns:dc="http://purl.org/dc/elements/1.1/" xmlns:cc="http://creativecommons.org/ns#" xmlns:rdf="http://www.w3.org/1999/02/22-rdf-syntax-ns#" xmlns:svg="http://www.w3.org/2000/svg" xmlns="http://www.w3.org/2000/svg" xmlns:sodipodi="http://sodipodi.sourceforge.net/DTD/sodipodi-0.dtd" xmlns:inkscape="http://www.inkscape.org/namespaces/inkscape" viewBox="0 0 8.4666665 10.583333625" version="1.1" x="0px" y="0px"><g transform="translate(0,-288.53333)"><path style="color:#000000;font-style:normal;font-variant:normal;font-weight:normal;font-stretch:normal;font-size:medium;line-height:normal;font-family:sans-serif;font-variant-ligatures:normal;font-variant-position:normal;font-variant-caps:normal;font-variant-numeric:normal;font-variant-alternates:normal;font-feature-settings:normal;text-indent:0;text-align:start;text-decoration:none;text-decoration-line:none;text-decoration-style:solid;text-decoration-color:#000000;letter-spacing:normal;word-spacing:normal;text-transform:none;writing-mode:lr-tb;direction:ltr;text-orientation:mixed;dominant-baseline:auto;baseline-shift:baseline;text-anchor:start;white-space:normal;shape-padding:0;clip-rule:nonzero;display:inline;overflow:visible;visibility:visible;opacity:1;isolation:auto;mix-blend-mode:normal;color-interpolation:sRGB;color-interpolation-filters:linearRGB;solid-color:#000000;solid-opacity:1;vector-effect:none;fill:#000000;fill-opacity:1;fill-rule:evenodd;stroke:none;stroke-width:2;stroke-linecap:round;stroke-linejoin:round;stroke-miterlimit:4;stroke-dasharray:none;stroke-dashoffset:0;stroke-opacity:1;color-rendering:auto;image-rendering:auto;shape-rendering:auto;text-rendering:auto;enable-background:accumulate" d="M 2.9003906 5.09375 A 1.0001001 1.0001001 0 0 0 2 6.0898438 L 2 25.910156 A 1.0001001 1.0001001 0 0 0 2.9960938 26.914062 L 29.003906 26.914062 A 1.0001001 1.0001001 0 0 0 30 25.910156 L 30 6.0898438 A 1.0001001 1.0001001 0 0 0 29.003906 5.09375 L 2.9960938 5.09375 A 1.0001001 1.0001001 0 0 0 2.9003906 5.09375 z M 4.0019531 7.0859375 L 28 7.0859375 L 28 24.914062 L 4.0019531 24.914062 L 4.0019531 7.0859375 z M 5.9785156 8.0019531 A 1.0001001 1.0001001 0 0 0 5.4257812 9.8398438 L 9.7265625 12.736328 C 9.641307 12.752977 9.5560481 12.768503 9.4707031 12.785156 A 1.0001001 1.0001001 0 1 0 9.8476562 14.75 C 10.693137 14.585213 11.541153 14.418542 12.386719 14.253906 A 1.0001001 1.0001001 0 0 0 13.128906 13.693359 A 1.0001001 1.0001001 0 0 0 13.236328 12.984375 L 12.740234 10.453125 A 1.0001001 1.0001001 0 0 0 11.751953 9.625 A 1.0001001 1.0001001 0 0 0 10.777344 10.828125 L 10.822266 11.0625 L 6.546875 8.1777344 A 1.0001001 1.0001001 0 0 0 5.9785156 8.0019531 z M 22.318359 17.234375 A 1.0001001 1.0001001 0 0 0 22.285156 17.236328 A 1.0001001 1.0001001 0 0 0 22.115234 17.259766 C 21.269753 17.424553 20.42955 17.58927 19.583984 17.753906 A 1.0003731 1.0003731 0 0 0 18.867188 18.279297 A 1.0001001 1.0001001 0 0 0 18.734375 19.023438 L 19.230469 21.554688 A 1.0003746 1.0003746 0 1 0 21.193359 21.169922 L 21.148438 20.935547 L 25.423828 23.820312 A 1.0022161 1.0022161 0 1 0 26.544922 22.160156 L 22.246094 19.271484 C 22.330785 19.254945 22.41522 19.2392 22.5 19.222656 A 1.0001001 1.0001001 0 0 0 22.318359 17.234375 z " transform="matrix(0.26458333,0,0,0.26458333,0,288.53333)"/></g>
</svg>