<svg xmlns="http://www.w3.org/2000/svg" viewBox="0 0 48 60" x="0px" y="0px">
<path d="M30,4H18a3,3,0,0,0-3,3V9H10a3,3,0,0,0-3,3v2a3,3,0,0,0,2.06,2.83l1.73,23.48a4,4,0,0,0,4,3.69H33.22a4,4,0,0,0,4-3.69l1.73-23.48A3,3,0,0,0,41,14V12a3,3,0,0,0-3-3H33V7A3,3,0,0,0,30,4ZM17,7a1,1,0,0,1,1-1H30a1,1,0,0,1,1,1V9H17ZM35.22,40.16a2,2,0,0,1-2,1.84H14.78a2,2,0,0,1-2-1.84L11.08,17H36.92ZM38,11a1,1,0,0,1,1,1v2a1,1,0,0,1-1,1H10a1,1,0,0,1-1-1V12a1,1,0,0,1,1-1Z"/>
<path d="M17,38h.07A1,1,0,0,0,18,36.93l-1-15a1,1,0,0,0-2,.14l1,15A1,1,0,0,0,17,38Z"/>
<path d="M24,38a1,1,0,0,0,1-1V22a1,1,0,0,0-2,0V37A1,1,0,0,0,24,38Z"/>
<path d="M30.93,38H31a1,1,0,0,0,1-.93l1-15a1,1,0,0,0-2-.14l-1,15A1,1,0,0,0,30.93,38Z"/>
</svg>