<svg xmlns:dc="http://purl.org/dc/elements/1.1/" xmlns:cc="http://creativecommons.org/ns#" xmlns:rdf="http://www.w3.org/1999/02/22-rdf-syntax-ns#" xmlns:svg="http://www.w3.org/2000/svg" xmlns="http://www.w3.org/2000/svg" xmlns:sodipodi="http://sodipodi.sourceforge.net/DTD/sodipodi-0.dtd" xmlns:inkscape="http://www.inkscape.org/namespaces/inkscape" viewBox="0 0 8.4666667 10.583333374999999" version="1.1" x="0px" y="0px"><g><path style="color:#000000;font-style:normal;font-variant:normal;font-weight:normal;font-stretch:normal;font-size:medium;line-height:normal;font-family:sans-serif;font-variant-ligatures:normal;font-variant-position:normal;font-variant-caps:normal;font-variant-numeric:normal;font-variant-alternates:normal;font-feature-settings:normal;text-indent:0;text-align:start;text-decoration:none;text-decoration-line:none;text-decoration-style:solid;text-decoration-color:#000000;letter-spacing:normal;word-spacing:normal;text-transform:none;writing-mode:lr-tb;direction:ltr;text-orientation:mixed;dominant-baseline:auto;baseline-shift:baseline;text-anchor:start;white-space:normal;shape-padding:0;clip-rule:nonzero;display:inline;overflow:visible;visibility:visible;opacity:1;isolation:auto;mix-blend-mode:normal;color-interpolation:sRGB;color-interpolation-filters:linearRGB;solid-color:#000000;solid-opacity:1;vector-effect:none;fill:#000000;fill-opacity:1;fill-rule:nonzero;stroke:none;stroke-width:0.5291667;stroke-linecap:round;stroke-linejoin:miter;stroke-miterlimit:4;stroke-dasharray:none;stroke-dashoffset:0;stroke-opacity:1;color-rendering:auto;image-rendering:auto;shape-rendering:auto;text-rendering:auto;enable-background:accumulate" d="M 1.0580241,0.79391179 A 0.26433047,0.26446119 0 0 0 0.79629411,1.0950158 v 1.28757 a 0.264565,0.26469584 0 0 0 0.52912989,0 V 1.6987737 l 1.6642901,1.6640801 a 0.26433047,0.26446119 0 1 0 0.37271,-0.372895 L 1.699164,1.3248468 h 0.6834701 a 0.26456215,0.26469301 0 1 0 0,-0.52938601 H 1.088994 a 0.26433047,0.26446119 0 0 0 -0.031,-0.0015 z m 6.34071,0 a 0.26433047,0.26446119 0 0 0 -0.0196,0.0015 H 6.0839338 a 0.26456216,0.26469302 0 0 0 0,0.52938601 h 0.6834798 l -1.6627499,1.665113 a 0.26433047,0.26446119 0 1 0 0.3727101,0.372894 l 1.66429,-1.6640801 v 0.6838121 a 0.26436906,0.2644998 0 1 0 0.52861,0 V 1.0955318 A 0.26433047,0.26446119 0 0 0 7.3987441,0.79391179 Z m -3.1701,2.64279701 A 0.26433047,0.26446119 0 0 0 3.9689742,3.7063086 V 3.9697109 H 3.705704 a 0.26433047,0.26446119 0 0 0 -0.0274,0 0.26472161,0.26485252 0 0 0 0.0274,0.528869 h 0.2632702 v 0.263402 a 0.26436906,0.2644998 0 0 0 0.52861,0 v -0.263402 h 0.2632699 a 0.26436906,0.2644998 0 1 0 0,-0.528869 H 4.4975842 V 3.7063086 A 0.26433047,0.26446119 0 0 0 4.2286341,3.4367088 Z M 5.2879142,5.0238336 A 0.26433047,0.26446119 0 0 0 5.104664,5.4788476 L 6.7674041,7.1439597 H 6.083924 a 0.26436906,0.2644998 0 1 0 0,0.5288701 h 1.32101 A 0.26433047,0.26446119 0 0 0 7.670264,7.4073617 V 6.0857047 A 0.26433047,0.26446119 0 0 0 7.4008039,5.8161046 0.26433047,0.26446119 0 0 0 7.1416541,6.0857047 v 0.6838119 l -1.66428,-1.6635629 a 0.26433047,0.26446119 0 0 0 -0.1894599,-0.08212 z m -2.1170101,0.00209 a 0.26433047,0.26446119 0 0 0 -0.18119,0.08006 L 1.325424,6.769551 V 6.0857388 A 0.26433047,0.26446119 0 0 0 1.0580241,5.816139 0.26433047,0.26446119 0 0 0 0.79629411,6.0857388 v 1.321657 A 0.26433047,0.26446119 0 0 0 1.0621541,7.6728737 h 1.32048 a 0.26436906,0.2644998 0 1 0 0,-0.52887 H 1.699164 L 3.3624241,5.4788918 a 0.26433047,0.26446119 0 0 0 -0.19152,-0.4529481 z"/></g>
</svg>