<svg xmlns="http://www.w3.org/2000/svg" xmlns:xlink="http://www.w3.org/1999/xlink" version="1.1" x="0px" y="0px" viewBox="0 0 100 125" style="enable-background:new 0 0 100 100;" xml:space="preserve">
<path d="M55.79,22.53c0,2.32,0.65,4.49,1.75,6.36l-16.8,12.48c-2.28-2.39-5.49-3.89-9.05-3.89c-6.91,0-12.53,5.62-12.53,12.53  s5.62,12.53,12.53,12.53c3.56,0,6.77-1.5,9.05-3.89l16.8,12.48c-1.11,1.87-1.75,4.04-1.75,6.36c0,6.91,5.62,12.53,12.53,12.53  s12.53-5.62,12.53-12.53c0-6.91-5.62-12.53-12.53-12.53c-3.48,0-6.63,1.43-8.9,3.73l-16.84-12.5c1.04-1.82,1.64-3.93,1.64-6.17  s-0.6-4.35-1.64-6.17l16.84-12.5c2.27,2.3,5.42,3.73,8.9,3.73c6.91,0,12.53-5.62,12.53-12.53c0-6.91-5.62-12.53-12.53-12.53  S55.79,15.62,55.79,22.53z M68.32,68.02c5.21,0,9.45,4.24,9.45,9.45s-4.24,9.45-9.45,9.45c-5.21,0-9.45-4.24-9.45-9.45  S63.1,68.02,68.32,68.02z M31.68,59.45c-5.21,0-9.45-4.24-9.45-9.45s4.24-9.45,9.45-9.45s9.45,4.24,9.45,9.45  S36.9,59.45,31.68,59.45z M77.77,22.53c0,5.21-4.24,9.45-9.45,9.45c-5.21,0-9.45-4.24-9.45-9.45s4.24-9.45,9.45-9.45  C73.53,13.08,77.77,17.32,77.77,22.53z"/>
</svg>