<svg xmlns:dc="http://purl.org/dc/elements/1.1/" xmlns:cc="http://creativecommons.org/ns#" xmlns:rdf="http://www.w3.org/1999/02/22-rdf-syntax-ns#" xmlns:svg="http://www.w3.org/2000/svg" xmlns="http://www.w3.org/2000/svg" xmlns:sodipodi="http://sodipodi.sourceforge.net/DTD/sodipodi-0.dtd" xmlns:inkscape="http://www.inkscape.org/namespaces/inkscape" version="1.1" viewBox="0 0 12.7 15.875" x="0px" y="0px"><g style="" display="inline">
<path style="color:#000000;font-style:normal;font-variant:normal;font-weight:normal;font-stretch:normal;font-size:medium;line-height:normal;font-family:sans-serif;font-variant-ligatures:normal;font-variant-position:normal;font-variant-caps:normal;font-variant-numeric:normal;font-variant-alternates:normal;font-feature-settings:normal;text-indent:0;text-align:start;text-decoration:none;text-decoration-line:none;text-decoration-style:solid;text-decoration-color:#000000;letter-spacing:normal;word-spacing:normal;text-transform:none;writing-mode:lr-tb;direction:ltr;text-orientation:mixed;dominant-baseline:auto;baseline-shift:baseline;text-anchor:start;white-space:normal;shape-padding:0;clip-rule:nonzero;display:inline;overflow:visible;visibility:visible;opacity:1;isolation:auto;mix-blend-mode:normal;color-interpolation:sRGB;color-interpolation-filters:linearRGB;solid-color:#000000;solid-opacity:1;vector-effect:none;fill:#000000;fill-opacity:1;fill-rule:nonzero;stroke:none;stroke-width:1.05833328;stroke-linecap:round;stroke-linejoin:round;stroke-miterlimit:4;stroke-dasharray:none;stroke-dashoffset:0;stroke-opacity:1;paint-order:normal;color-rendering:auto;image-rendering:auto;shape-rendering:auto;text-rendering:auto;enable-background:accumulate" d="m 4.6395104,0.5296835 c -0.567738,0 -1.064328,0.331462 -1.306897,0.809253 -0.151891,0.256082 -0.06259,0.586654 0.197404,0.731738 0.254716,0.142095 0.576471,0.05171 0.719336,-0.202571 0.04912,-0.168465 0.199665,-0.281637 0.390157,-0.281637 h 6.0662956 c 0.23423,0 0.406177,0.171946 0.406177,0.406177 v 6.068363 c 0,0.183495 -0.105741,0.327565 -0.264067,0.381889 -0.254286,0.142864 -0.344667,0.465137 -0.202572,0.719853 0.145086,0.26 0.475656,0.349295 0.731739,0.197404 0.469608,-0.244931 0.79375,-0.737887 0.79375,-1.299146 v -6.068363 c 0,-0.802241 -0.662786,-1.46296 -1.465027,-1.46296 z m -2.645317,2.646867 c -0.802241,0 -1.46502698,0.660202 -1.46502698,1.462443 v 6.0683635 c 0,0.802241 0.66278598,1.46296 1.46502698,1.46296 h 6.066296 c 0.802241,0 1.465027,-0.660719 1.465027,-1.46296 V 4.6389935 c 0,-0.802241 -0.662786,-1.462443 -1.465027,-1.462443 z m 0,1.056266 h 6.066296 c 0.234231,0 0.406177,0.171946 0.406177,0.406177 v 6.0683635 c 0,0.234231 -0.171946,0.406694 -0.406177,0.406694 h -6.066296 c -0.23423,0 -0.406177,-0.172463 -0.406177,-0.406694 V 4.6389935 c 0,-0.234231 0.171947,-0.406177 0.406177,-0.406177 z"/></g>
</svg>